<svg width="60" height="36" viewBox="0 0 60 36" fill="none" xmlns="http://www.w3.org/2000/svg">
<path fill-rule="evenodd" clip-rule="evenodd" d="M55.8573 26.7889H19.2947C16.9995 26.7889 15.1482 28.0749 15.1482 29.6664V32.5416C15.1482 34.1308 16.9957 35.4167 19.2947 35.4167H55.8573C58.145 35.4167 60.0001 34.1308 60.0001 32.5416V29.6664C60.0001 28.0749 58.1488 26.7889 55.8573 26.7889ZM26.2107 33.5044C25.6557 33.5021 25.107 33.4355 24.5959 33.3084C24.0847 33.1813 23.6211 32.9963 23.2315 32.7638C22.8419 32.5314 22.534 32.2561 22.3253 31.9536C22.1166 31.6511 22.0112 31.3274 22.0152 31.001C22.0152 29.6132 23.8966 28.4955 26.2107 28.4955C28.5172 28.4955 30.3986 29.6132 30.3986 31.001C30.3986 32.3866 28.5172 33.5044 26.2107 33.5044ZM37.5252 33.48C36.9925 33.4794 36.4653 33.4172 35.9735 33.2967C35.4818 33.1763 35.0352 33 34.6592 32.778C34.2833 32.5561 33.9853 32.2927 33.7824 32.003C33.5795 31.7133 33.4755 31.4029 33.4765 31.0896C33.4765 29.7682 35.2901 28.6969 37.5252 28.6969C38.601 28.6992 39.6314 28.9524 40.3903 29.4009C41.1493 29.8495 41.5749 30.4567 41.5739 31.0896C41.5739 32.411 39.7565 33.48 37.5252 33.48ZM48.9828 33.5509C46.6085 33.5509 44.6744 32.4552 44.6744 31.0984C44.6744 29.7372 46.6085 28.6393 48.9828 28.6393C51.357 28.6393 53.2911 29.7372 53.2911 31.0984C53.2911 32.4552 51.357 33.5509 48.9828 33.5509Z" fill="black"/>
<path fill-rule="evenodd" clip-rule="evenodd" d="M45.0205 17.8245L45.0995 13.3667H27.8587L24.7243 8.72524L24.7092 8.69868L24.6904 8.70311L14.96 2.73577L16.2694 0.743704L13.0184 0L4.52214 13.9068C2.51453 14.5751 1.02572 15.6753 0.36888 16.976C-0.287964 18.2768 -0.061653 19.6767 1.00021 20.8813C3.25786 23.4178 9.6658 25.1443 13.944 23.7919C17.259 22.7472 11.9874 16.2552 7.96505 14.3429L13.5678 4.85621L21.7028 9.84744L26.5229 19.9959V22.2004C26.5229 25.7574 30.4023 24.2899 30.4023 24.2899H53.0954C53.0954 24.2899 56.2711 25.1531 56.2711 22.061V19.3629C56.2711 17.4438 52.7417 17.7958 52.7417 17.7958L45.0205 17.8245ZM41.4572 22.3421H29.8153V15.4252H41.4572V22.3421Z" fill="black"/>
</svg>
