<svg width="57" height="25" viewBox="0 0 57 25" fill="none" xmlns="http://www.w3.org/2000/svg">
<path fill-rule="evenodd" clip-rule="evenodd" d="M45.0205 17.8245L45.0995 13.3667H27.8587L24.7243 8.72524L24.7092 8.69868L24.6904 8.70311L14.96 2.73577L16.2694 0.743704L13.0184 0L4.52214 13.9068C2.51453 14.5751 1.02572 15.6753 0.36888 16.976C-0.287964 18.2768 -0.061653 19.6767 1.00021 20.8813C3.25786 23.4178 9.6658 25.1443 13.944 23.7919C17.259 22.7472 11.9874 16.2552 7.96505 14.3429L13.5678 4.85621L21.7028 9.84744L26.5229 19.9959V22.2004C26.5229 25.7574 30.4023 24.2899 30.4023 24.2899H53.0954C53.0954 24.2899 56.2711 25.1531 56.2711 22.061V19.3629C56.2711 17.4438 52.7417 17.7958 52.7417 17.7958L45.0205 17.8245ZM41.4572 22.3421H29.8153V15.4252H41.4572V22.3421Z" fill="black"/>
</svg>
