<svg width="45" height="10" viewBox="0 0 45 10" fill="none" xmlns="http://www.w3.org/2000/svg">
<path fill-rule="evenodd" clip-rule="evenodd" d="M40.8573 0.78894H4.29473C1.99946 0.78894 0.148193 2.07492 0.148193 3.66635V6.54155C0.148193 8.13077 1.9957 9.41675 4.29473 9.41675H40.8573C43.145 9.41675 45.0001 8.13077 45.0001 6.54155V3.66635C45.0001 2.07492 43.1488 0.78894 40.8573 0.78894ZM11.2107 7.50438C10.6557 7.50206 10.107 7.43547 9.59587 7.30841C9.08471 7.18135 8.6211 6.99631 8.23152 6.76385C7.84193 6.53139 7.53399 6.25606 7.3253 5.9536C7.1166 5.65113 7.01123 5.32745 7.01519 5.00103C7.01519 3.61323 8.89657 2.49547 11.2107 2.49547C13.5172 2.49547 15.3986 3.61323 15.3986 5.00103C15.3986 6.38661 13.5172 7.50438 11.2107 7.50438ZM22.5252 7.48003C21.9925 7.47945 21.4653 7.41716 20.9735 7.29671C20.4818 7.17626 20.0352 7.00002 19.6592 6.77805C19.2833 6.55607 18.9853 6.29271 18.7824 6.003C18.5795 5.71329 18.4755 5.4029 18.4765 5.08956C18.4765 3.76817 20.2901 2.69688 22.5252 2.69688C23.601 2.69923 24.6314 2.95242 25.3903 3.40094C26.1493 3.84947 26.5749 4.45672 26.5739 5.08956C26.5739 6.41096 24.7565 7.48003 22.5252 7.48003ZM33.9828 7.55086C31.6085 7.55086 29.6744 6.45523 29.6744 5.09842C29.6744 3.73718 31.6085 2.63934 33.9828 2.63934C36.357 2.63934 38.2911 3.73718 38.2911 5.09842C38.2911 6.45523 36.357 7.55086 33.9828 7.55086Z" fill="black"/>
</svg>
