<svg width="61" height="36" viewBox="0 0 61 36" fill="none" xmlns="http://www.w3.org/2000/svg">
<path d="M46.3755 32.0964C45.2905 32.0964 44.25 31.7466 43.4828 31.1239C42.7156 30.5012 42.2846 29.6567 42.2846 28.7761C42.2846 27.8955 42.7156 27.051 43.4828 26.4283C44.25 25.8056 45.2905 25.4558 46.3755 25.4558C47.4605 25.4558 48.501 25.8056 49.2682 26.4283C50.0354 27.051 50.4664 27.8955 50.4664 28.7761C50.4664 29.6567 50.0354 30.5012 49.2682 31.1239C48.501 31.7466 47.4605 32.0964 46.3755 32.0964ZM50.4664 12.1745L55.8118 17.7084H43.6482V12.1745H50.4664ZM13.6482 32.0964C12.5632 32.0964 11.5227 31.7466 10.7555 31.1239C9.9883 30.5012 9.5573 29.6567 9.5573 28.7761C9.5573 27.8955 9.9883 27.051 10.7555 26.4283C11.5227 25.8056 12.5632 25.4558 13.6482 25.4558C14.7332 25.4558 15.7737 25.8056 16.5409 26.4283C17.3081 27.051 17.7391 27.8955 17.7391 28.7761C17.7391 29.6567 17.3081 30.5012 16.5409 31.1239C15.7737 31.7466 14.7332 32.0964 13.6482 32.0964ZM51.83 8.85419H43.6482V0H5.46639C2.43911 0 0.0118408 1.97006 0.0118408 4.42709V28.7761H5.46639C5.46639 30.5373 6.3284 32.2264 7.86279 33.4718C9.39717 34.7171 11.4783 35.4167 13.6482 35.4167C15.8182 35.4167 17.8992 34.7171 19.4336 33.4718C20.968 32.2264 21.83 30.5373 21.83 28.7761H38.1937C38.1937 30.5373 39.0557 32.2264 40.5901 33.4718C42.1244 34.7171 44.2055 35.4167 46.3755 35.4167C48.5454 35.4167 50.6265 34.7171 52.1609 33.4718C53.6953 32.2264 54.5573 30.5373 54.5573 28.7761H60.0118V17.7084L51.83 8.85419Z" fill="black"/>
</svg>
