<svg width="60" height="36" viewBox="0 0 60 36" fill="none" xmlns="http://www.w3.org/2000/svg">
<path d="M6 0.322998C5.20435 0.322998 4.44129 0.571758 3.87868 1.01455C3.31607 1.45735 3 2.05791 3 2.68411V14.4897C1.62 14.4897 0.42 15.2216 0.0899999 16.2841V23.8633H0.87C1.95 22.4467 3.9 21.573 6 21.573H33C35.1 21.573 37.05 22.4467 38.13 23.8633H42.09L42 16.8508C42 16.2246 41.6839 15.624 41.1213 15.1813C40.5587 14.7385 39.7957 14.4897 39 14.4897H33V9.76746C33 9.14126 32.6839 8.5407 32.1213 8.0979C31.5587 7.65511 30.7956 7.40635 30 7.40635C29.2044 7.40635 28.4413 7.65511 27.8787 8.0979C27.3161 8.5407 27 9.14126 27 9.76746V14.4897H21V2.68411C21 2.05791 20.6839 1.45735 20.1213 1.01455C19.5587 0.571758 18.7956 0.322998 18 0.322998H6ZM9 5.04523H15V16.8508H9V5.04523ZM45 16.8508V35.7397H60V33.3786L51 31.0175L48 16.8508H45ZM6 26.2953C4.4087 26.2953 2.88258 26.7928 1.75736 27.6784C0.632141 28.564 0 29.7651 0 31.0175C0 32.2699 0.632141 33.471 1.75736 34.3566C2.88258 35.2422 4.4087 35.7397 6 35.7397H33C34.5913 35.7397 36.1174 35.2422 37.2426 34.3566C38.3679 33.471 39 32.2699 39 31.0175C39 29.7651 38.3679 28.564 37.2426 27.6784C36.1174 26.7928 34.5913 26.2953 33 26.2953H6Z" fill="#FCC139"/>
</svg>
