<svg width="120" height="72" viewBox="0 0 120 72" fill="none" xmlns="http://www.w3.org/2000/svg">
<path d="M12 0.522705C10.4087 0.522705 8.88258 1.02353 7.75736 1.91501C6.63214 2.80649 6 4.01559 6 5.27633V29.0445C3.24 29.0445 0.84 30.5181 0.18 32.6572V47.9164H1.74C3.9 45.0642 7.8 43.3054 12 43.3054H66C70.2 43.3054 74.1 45.0642 76.26 47.9164H84.18L84 33.7981C84 32.5374 83.3679 31.3283 82.2426 30.4368C81.1174 29.5453 79.5913 29.0445 78 29.0445H66V19.5372C66 18.2765 65.3679 17.0674 64.2426 16.1759C63.1174 15.2844 61.5913 14.7836 60 14.7836C58.4087 14.7836 56.8826 15.2844 55.7574 16.1759C54.6321 17.0674 54 18.2765 54 19.5372V29.0445H42V5.27633C42 4.01559 41.3679 2.80649 40.2426 1.91501C39.1174 1.02353 37.5913 0.522705 36 0.522705H12ZM18 10.03H30V33.7981H18V10.03ZM90 33.7981V71.8271H120V67.0735L102 62.3199L96 33.7981H90ZM12 52.8126C8.8174 52.8126 5.76515 53.8143 3.51472 55.5972C1.26428 57.3802 0 59.7984 0 62.3199C0 64.8414 1.26428 67.2596 3.51472 69.0425C5.76515 70.8255 8.8174 71.8271 12 71.8271H66C69.1826 71.8271 72.2348 70.8255 74.4853 69.0425C76.7357 67.2596 78 64.8414 78 62.3199C78 59.7984 76.7357 57.3802 74.4853 55.5972C72.2348 53.8143 69.1826 52.8126 66 52.8126H12Z" fill="black"/>
</svg>
