<svg width="120" height="72" viewBox="0 0 120 72" fill="none" xmlns="http://www.w3.org/2000/svg">
<path d="M92.7273 65.1424C90.5573 65.1424 88.4762 64.4381 86.9419 63.1844C85.4075 61.9308 84.5455 60.2305 84.5455 58.4576C84.5455 56.6846 85.4075 54.9843 86.9419 53.7307C88.4762 52.4771 90.5573 51.7728 92.7273 51.7728C94.8972 51.7728 96.9783 52.4771 98.5127 53.7307C100.047 54.9843 100.909 56.6846 100.909 58.4576C100.909 60.2305 100.047 61.9308 98.5127 63.1844C96.9783 64.4381 94.8972 65.1424 92.7273 65.1424ZM100.909 25.0336L111.6 36.1749H87.2727V25.0336H100.909ZM27.2727 65.1424C25.1028 65.1424 23.0217 64.4381 21.4873 63.1844C19.9529 61.9308 19.0909 60.2305 19.0909 58.4576C19.0909 56.6846 19.9529 54.9843 21.4873 53.7307C23.0217 52.4771 25.1028 51.7728 27.2727 51.7728C29.4427 51.7728 31.5238 52.4771 33.0581 53.7307C34.5925 54.9843 35.4545 56.6846 35.4545 58.4576C35.4545 60.2305 34.5925 61.9308 33.0581 63.1844C31.5238 64.4381 29.4427 65.1424 27.2727 65.1424ZM103.636 18.3488H87.2727V0.522705H10.9091C4.85455 0.522705 0 4.48901 0 9.43576V58.4576H10.9091C10.9091 62.0034 12.6331 65.404 15.7019 67.9113C18.7707 70.4186 22.9328 71.8271 27.2727 71.8271C31.6126 71.8271 35.7748 70.4186 38.8436 67.9113C41.9123 65.404 43.6364 62.0034 43.6364 58.4576H76.3636C76.3636 62.0034 78.0877 65.404 81.1564 67.9113C84.2252 70.4186 88.3874 71.8271 92.7273 71.8271C97.0672 71.8271 101.229 70.4186 104.298 67.9113C107.367 65.404 109.091 62.0034 109.091 58.4576H120V36.1749L103.636 18.3488Z" fill="black"/>
</svg>
