<svg width="120" height="72" viewBox="0 0 120 72" fill="none" xmlns="http://www.w3.org/2000/svg">
<path fill-rule="evenodd" clip-rule="evenodd" d="M111.714 54.4568H38.5893C33.9988 54.4568 30.2963 57.0459 30.2963 60.2499V66.0385C30.2963 69.2381 33.9913 71.8271 38.5893 71.8271H111.714C116.29 71.8271 120 69.2381 120 66.0385V60.2499C120 57.0459 116.297 54.4568 111.714 54.4568ZM52.4212 67.977C51.3114 67.9723 50.2139 67.8382 49.1916 67.5824C48.1693 67.3266 47.2421 66.9541 46.4629 66.4861C45.6837 66.0181 45.0679 65.4637 44.6505 64.8548C44.2331 64.2458 44.0223 63.5942 44.0303 62.937C44.0303 60.1429 47.793 57.8925 52.4212 57.8925C57.0343 57.8925 60.797 60.1429 60.797 62.937C60.797 65.7266 57.0343 67.977 52.4212 67.977ZM75.0503 67.928C73.985 67.9268 72.9304 67.8014 71.9469 67.5589C70.9634 67.3164 70.0702 66.9616 69.3183 66.5147C68.5664 66.0677 67.9705 65.5375 67.5646 64.9542C67.1588 64.371 66.9509 63.7461 66.9529 63.1152C66.9529 60.4549 70.5802 58.2981 75.0503 58.2981C77.2019 58.3028 79.2626 58.8125 80.7805 59.7155C82.2985 60.6185 83.1497 61.8411 83.1477 63.1152C83.1477 65.7756 79.5129 67.928 75.0503 67.928ZM97.9654 68.0706C93.2168 68.0706 89.3487 65.8647 89.3487 63.1331C89.3487 60.3925 93.2168 58.1822 97.9654 58.1822C102.714 58.1822 106.582 60.3925 106.582 63.1331C106.582 65.8647 102.714 68.0706 97.9654 68.0706Z" fill="black"/>
<path fill-rule="evenodd" clip-rule="evenodd" d="M90.041 36.4088L90.1991 27.4339H55.7173L49.4486 18.0892L49.4185 18.0357L49.3809 18.0446L29.92 6.03061L32.5388 2.02L26.0368 0.522705L9.04427 28.5212C5.02906 29.8666 2.05145 32.0816 0.73776 34.7004C-0.575928 37.3192 -0.123306 40.1376 2.00042 42.5628C6.51571 47.6697 19.3316 51.1455 27.8881 48.4228C34.518 46.3194 23.9748 33.2493 15.9301 29.3991L27.1355 10.2997L43.4056 20.3485L53.0458 40.7803V45.2187C53.0458 52.3799 60.8045 49.4254 60.8045 49.4254H106.191C106.191 49.4254 112.542 51.1634 112.542 44.938V39.5058C112.542 35.6423 105.483 36.3508 105.483 36.3508L90.041 36.4088ZM82.9144 45.5039H59.6306V31.5782H82.9144V45.5039Z" fill="black"/>
</svg>
