<svg width="60" height="36" viewBox="0 0 60 36" fill="none" xmlns="http://www.w3.org/2000/svg">
<path d="M46.3636 32.0964C45.2787 32.0964 44.2381 31.7466 43.4709 31.1239C42.7037 30.5012 42.2727 29.6567 42.2727 28.7761C42.2727 27.8955 42.7037 27.051 43.4709 26.4283C44.2381 25.8056 45.2787 25.4558 46.3636 25.4558C47.4486 25.4558 48.4892 25.8056 49.2563 26.4283C50.0235 27.051 50.4545 27.8955 50.4545 28.7761C50.4545 29.6567 50.0235 30.5012 49.2563 31.1239C48.4892 31.7466 47.4486 32.0964 46.3636 32.0964ZM50.4545 12.1745L55.8 17.7084H43.6364V12.1745H50.4545ZM13.6364 32.0964C12.5514 32.0964 11.5108 31.7466 10.7437 31.1239C9.97646 30.5012 9.54545 29.6567 9.54545 28.7761C9.54545 27.8955 9.97646 27.051 10.7437 26.4283C11.5108 25.8056 12.5514 25.4558 13.6364 25.4558C14.7213 25.4558 15.7619 25.8056 16.5291 26.4283C17.2963 27.051 17.7273 27.8955 17.7273 28.7761C17.7273 29.6567 17.2963 30.5012 16.5291 31.1239C15.7619 31.7466 14.7213 32.0964 13.6364 32.0964ZM51.8182 8.85419H43.6364V0H5.45455C2.42727 0 0 1.97006 0 4.42709V28.7761H5.45455C5.45455 30.5373 6.31656 32.2264 7.85094 33.4718C9.38533 34.7171 11.4664 35.4167 13.6364 35.4167C15.8063 35.4167 17.8874 34.7171 19.4218 33.4718C20.9562 32.2264 21.8182 30.5373 21.8182 28.7761H38.1818C38.1818 30.5373 39.0438 32.2264 40.5782 33.4718C42.1126 34.7171 44.1937 35.4167 46.3636 35.4167C48.5336 35.4167 50.6147 34.7171 52.1491 33.4718C53.6834 32.2264 54.5455 30.5373 54.5455 28.7761H60V17.7084L51.8182 8.85419Z" fill="#FCC139"/>
</svg>
